<?xml version="1.0" encoding="utf-8"?>
<!-- Generator: Adobe Illustrator 25.2.1, SVG Export Plug-In . SVG Version: 6.00 Build 0)  -->
<svg version="1.1" id="Layer_1" xmlns="http://www.w3.org/2000/svg" xmlns:xlink="http://www.w3.org/1999/xlink" x="0px" y="0px"
	 width="56.2444038px" height="47.607933px" viewBox="0 0 56.2444038 47.607933"
	 style="enable-background:new 0 0 56.2444038 47.607933;" xml:space="preserve">
<style type="text/css">
	.st0{fill:#0D0D0D;}
	.st1{fill:#AEDDD6;}
</style>
<g>
	<g>
		<circle class="st0" cx="12.9476967" cy="24.5243454" r="1.9195242"/>
		<path class="st1" d="M23.1269512,15.1209869c4.0591908-0.6365395,7.4327469-0.2008705,9.7257633,0.3515081
			c1.9597931-1.4324083,3.2381439-3.7416697,3.2381439-6.3550234c0-4.3490167-3.5255737-7.87465-7.874649-7.87465
			c-4.3490162,0-7.874649,3.5256333-7.874649,7.87465C20.3415604,11.5248003,21.424799,13.6765299,23.1269512,15.1209869z"/>
	</g>
	<path class="st0" d="M55.4042969,19.5044174C54.75,19.2749252,54.0390625,19.623558,53.8134766,20.2749252
		c-1.1914062,3.4297485-3.4156494,3.6463013-4.5496826,3.5076294c-1.1082764-4.9867554-3.1514893-7.2745972-4.2657471-8.5159302
		c-2.3582153-2.6273193-5.024292-4.3796387-7.684021-5.5421143c0.013855-0.2015991,0.0267944-0.4033813,0.0267944-0.6068115
		c0-5.0317388-4.09375-9.125-9.125-9.125c-4.8615723,0-8.8359985,3.8255615-9.0986328,8.6235962
		c-1.6460571,0.4591675-3.7400513,1.1890869-5.7646484,2.3217163c-1.6162109-0.6083984-4.5317383-1.03125-8.8608398,0.7900391
		c-0.6542969,0.2700195-1.1733398,0.8037109-1.4223633,1.4628906c-0.2475586,0.6533203-0.2138672,1.3886719,0.0932617,2.0195312
		c0.4316406,0.8813477,1.5332031,2.7988281,3.4321289,4.0283203c-0.9492188,1.5834961-1.8779297,3.4765625-2.1669922,5.1889648
		c-0.4316406,0.2250977-1.0366211,0.4560547-1.6269531,0.4003906c-0.7207031-0.0644531-1.4331055,0.168457-1.9658203,0.6464844
		C0.3110352,25.9487534,0.0068359,26.6250229,0,27.330101c-0.019043,1.9780273,0.2651367,6.8608398,3.3134766,9.4770508
		c1.2631836,1.0849609,2.7807617,1.6337891,4.5209961,1.5947266c0.7841797,0.8398438,2.171875,1.9443359,4.4526367,2.671875
		v3.9785156c0,1.4091797,1.1474609,2.5556641,2.5581055,2.5556641h5.3349609c1.1347656,0,2.1186523-0.7304688,2.4492188-1.8193359
		l0.703125-2.3330078c1.4960938,0.3115234,3.5366211,0.5722656,5.6235352,0.3359375v1.2607422
		c0,1.4091797,1.1474609,2.5556641,2.5585938,2.5556641h5.8486328c0.9414062,0,1.8037109-0.5126953,2.2480469-1.3369141
		l4.0068359-7.3671875c1.1856079-1.2876587,5.4578857-6.3591919,5.7820435-12.6160889
		c0.1158447,0.0060425,0.234375,0.0106201,0.3585815,0.0106201c0.7910156,0,1.7402344-0.137207,2.7001953-0.597168
		c1.6855469-0.809082,2.9355469-2.3583984,3.7158203-4.605957C56.4013672,20.442894,56.0566406,19.7304916,55.4042969,19.5044174z
		 M28.2158203,2.4926982c3.6533203,0,6.625,2.972168,6.625,6.6250005c0,1.9472656-0.8300781,3.7421875-2.2949219,5.003418
		c-0.2194214-0.046814-0.46698-0.0894165-0.7061768-0.1333618c-0.132019-0.0236816-0.2674561-0.0537109-0.3981323-0.0751343
		c-0.4445801-0.0740356-0.9206543-0.1394653-1.4225464-0.1945801c-0.1657715-0.0181274-0.3233643-0.0269165-0.4863892-0.041687
		c-0.3094482-0.0283203-0.6159668-0.0576172-0.9439087-0.0756226c-0.4995728-0.0276489-0.9856567-0.0419922-1.4538574-0.0423584
		c-0.0027466,0-0.005188-0.0002441-0.0079346-0.0002441c-0.0141602,0-0.0297852,0.0014038-0.0439453,0.0014038
		c-0.5338135,0.0006714-1.0387573,0.0205688-1.5271606,0.0495605c-0.1276245,0.0074463-0.2565918,0.0177002-0.3859863,0.0270996
		c-0.5123291,0.0380859-1.0028076,0.0852051-1.4554443,0.1447754c-0.0612793,0.0078125-0.1181641,0.0096436-0.1797485,0.0178833
		c-1.2407227-1.2402344-1.9428711-2.9179688-1.9428711-4.6811523C21.5917969,5.4648662,24.5634766,2.4926982,28.2158203,2.4926982z
		 M41.6855469,37.311058c-0.0732422,0.078125-0.1367188,0.1650391-0.1875,0.2597656l-4.1347656,7.5371094l-5.9072266-0.0556641
		v-2.75c0-0.3837891-0.1767578-0.7470703-0.4794922-0.984375c-0.2216797-0.1738281-0.4941406-0.265625-0.7705078-0.265625
		c-0.0996094,0-0.2001953,0.0117188-0.2998047,0.0361328c-2.6708984,0.6591797-5.5981445,0.0771484-7.1054688-0.328125
		c-0.6552734-0.1748047-1.3261719,0.1992188-1.5214844,0.8457031l-1.0991211,3.5019531l-5.3930664-0.0556641v-4.9248047
		c0-0.5761719-0.3935547-1.0771484-0.953125-1.2138672c-2.6806641-0.65625-3.9423828-1.8798828-4.4560547-2.5517578
		c-0.2612305-0.3408203-0.6772461-0.5205078-1.1074219-0.4853516c-1.340332,0.1259766-2.4272461-0.1923828-3.3286133-0.9658203
		c-1.8393555-1.5791016-2.4672852-4.9384766-2.3730469-7.5932617c1.6069336,0.1538086,3.0244141-0.6230469,3.7260742-1.0966797
		c0.3203125-0.2167969,0.5224609-0.5693359,0.5473633-0.9550781c0.0888672-1.3754883,1.0048828-3.4438477,2.5791016-5.8237305
		c0.2094727-0.3164062,0.2636719-0.7114258,0.1469727-1.0732422c-0.1162109-0.3613281-0.3911133-0.6503906-0.7460938-0.7851562
		c-1.9526367-0.7402344-3.1069336-2.8452148-3.3691406-3.5473633c4.2172852-1.7744141,6.5922852-0.9985352,7.418457-0.5839844
		c0.3828125,0.1933594,0.8398438,0.1757812,1.2075195-0.0454102c1.7825317-1.0737915,3.7043457-1.788147,5.2736816-2.2529297
		c0.2677002,1.1482544,0.7320557,2.2399902,1.4120483,3.2047729c-0.7055054,0.1899414-1.1385498,0.3478394-1.2072144,0.3743286
		c-0.6430664,0.2470703-0.9638672,0.9677734-0.7182617,1.6118164c0.2456055,0.6445312,0.9677734,0.9658203,1.6118164,0.7231445
		c0.0581665-0.0227661,5.1349487-1.8845825,11.8344116-0.4402466c0.0892944,0.0203247,0.1889038,0.039856,0.2739868,0.0603638
		c0.0144043,0.003479,0.0291138,0.0021973,0.0435791,0.005127c0.9609985,0.2208252,1.953125,0.508728,2.9681396,0.8820801
		c0.1425781,0.0522461,0.2880859,0.0771484,0.4316406,0.0771484c0.5087891,0,0.9873047-0.3134766,1.1728516-0.8188477
		c0.2382812-0.6479492-0.09375-1.3666992-0.7412109-1.6049805c-0.3862915-0.1420288-0.7644043-0.2581787-1.1439819-0.3790894
		c0.6397705-0.7901001,1.1434326-1.6801147,1.4924927-2.6291504c2.2089844,1.0356445,4.4018555,2.5413208,6.3536377,4.7162476
		c0,0,0,0,0.0009766,0c1.3603516,1.5166016,2.8847656,3.4882812,3.7607422,7.7177734
		C47.3945312,31.0464096,42.2734375,36.686058,41.6855469,37.311058z"/>
</g>
</svg>
