<svg width="60" height="60" viewBox="0 0 60 60" fill="none" xmlns="http://www.w3.org/2000/svg">
<path d="M5.79798 19.7379H13.4755L13.7146 40.4257L45.6162 41.009V47.884L4.96465 48.5507L5.79798 19.7379Z" fill="#AFDED7"/>
<path d="M53.8413 11H13.4756C12.7852 11 12.2256 11.5596 12.2256 12.25V18.4883H5.25C4.55957 18.4883 4 19.0479 4 19.7383V48.2842C4 48.9746 4.55957 49.5342 5.25 49.5342H45.6167C46.3071 49.5342 46.8667 48.9746 46.8667 48.2842V42.0469H53.8413C54.5317 42.0469 55.0913 41.4873 55.0913 40.7969V12.25C55.0913 11.5596 54.5317 11 53.8413 11ZM52.5913 13.5V35.7006L39.3989 23.3203C38.9194 22.8691 38.1724 22.8701 37.6909 23.3174L28.6538 31.7451L24.708 28.0654C24.2305 27.6201 23.4878 27.6172 23.0073 28.0615L14.7256 35.7114V13.5H52.5913ZM44.3667 47.0342H6.5V20.9883H12.2256V40.7969C12.2256 41.4873 12.7852 42.0469 13.4756 42.0469H44.3667V47.0342ZM14.7256 39.5469V39.1141L23.8516 30.6846L27.8013 34.3682C28.2817 34.8154 29.0259 34.8154 29.5063 34.3682L38.5405 25.9434L52.5913 39.1285V39.5469H14.7256Z" fill="#0F0F0F"/>
<path d="M28.8632 24.2314C30.8778 24.2314 32.5108 22.5983 32.5108 20.5838C32.5108 18.5693 30.8778 16.9362 28.8632 16.9362C26.8487 16.9362 25.2156 18.5693 25.2156 20.5838C25.2156 22.5983 26.8487 24.2314 28.8632 24.2314Z" fill="#AFDED7"/>
<path d="M28.8628 25.4814C26.1626 25.4814 23.9658 23.2842 23.9658 20.584C23.9658 17.8838 26.1626 15.6865 28.8628 15.6865C31.564 15.6865 33.7612 17.8838 33.7612 20.584C33.7612 23.2842 31.564 25.4814 28.8628 25.4814ZM28.8628 18.1865C27.5415 18.1865 26.4653 19.2617 26.4653 20.584C26.4653 21.9062 27.5415 22.9814 28.8628 22.9814C30.1851 22.9814 31.2612 21.9062 31.2612 20.584C31.2612 19.2617 30.1851 18.1865 28.8628 18.1865Z" fill="#0F0F0F"/>
</svg>
