<?xml version="1.0" encoding="utf-8"?>
<!-- Generator: Adobe Illustrator 25.2.1, SVG Export Plug-In . SVG Version: 6.00 Build 0)  -->
<svg version="1.1" id="Layer_1" xmlns="http://www.w3.org/2000/svg" xmlns:xlink="http://www.w3.org/1999/xlink" x="0px" y="0px"
	 width="57.2124634px" height="49.0625px" viewBox="0 0 57.2124634 49.0625" style="enable-background:new 0 0 57.2124634 49.0625;"
	 xml:space="preserve">
<style type="text/css">
	.st0{fill:#AEDDD6;}
	.st1{fill:#0D0D0D;}
</style>
<rect x="1.8069369" y="1.4667149" class="st0" width="47.1477242" height="8.4963923"/>
<path class="st0" d="M49.1284561,38.8498611l6.2639503,6.1257324c0,0,0.569313,0.9908257-0.5470352,2.0091705
	c0,0-1.1834831,0.8259125-2.7798119-0.7706413c-2.0800629-2.0803566-5.2652283-5.3119164-5.2652283-5.3119164L49.1284561,38.8498611
	z"/>
<g>
	<circle class="st1" cx="7.1439309" cy="5.714911" r="1.7389975"/>
	<circle class="st1" cx="12.4549236" cy="5.714911" r="1.7389975"/>
	<circle class="st1" cx="17.7659168" cy="5.714911" r="1.7389975"/>
</g>
<g>
	<circle class="st0" cx="39.7543373" cy="30.692215" r="7.5351925"/>
	<path class="st1" d="M39.7540894,38.9882812c-4.5742188,0-8.2958984-3.7216797-8.2958984-8.2958984
		s3.7216797-8.2958984,8.2958984-8.2958984s8.2958984,3.7216797,8.2958984,8.2958984S44.3283081,38.9882812,39.7540894,38.9882812z
		 M39.7540894,24.8964844c-3.1962891,0-5.7958984,2.5996094-5.7958984,5.7958984s2.5996094,5.7958984,5.7958984,5.7958984
		s5.7958984-2.5996094,5.7958984-5.7958984S42.9503784,24.8964844,39.7540894,24.8964844z"/>
	<path class="st1" d="M56.2316284,43.3369141l-5.4266968-5.4266968c1.3613281-2.0770264,2.1600952-4.5545044,2.1600952-7.2178345
		c0-2.7662354-0.8581543-5.3341675-2.3173828-7.4586182V1.25c0-0.6904297-0.5595703-1.25-1.25-1.25H1.3639526
		c-0.6904297,0-1.25,0.5595703-1.25,1.25v36.5996094c0,1.2402344,1.0092773,2.25,2.25,2.25h28.1303101
		c2.3861084,2.3490601,5.6552124,3.8037109,9.2598267,3.8037109c2.1879883,0,4.2485962-0.5432129,6.067749-1.4888306
		l5.6656494,5.6665649c0.6542969,0.6542969,1.5126953,0.9814453,2.3720703,0.9814453s1.71875-0.3271484,2.3730469-0.9814453
		C57.5392456,46.7724609,57.5392456,44.6445312,56.2316284,43.3369141z M48.147644,2.5v6.7119141H2.6139526V2.5H48.147644z
		 M2.6139526,11.7119141H48.147644v8.7865601c-2.2838745-1.8839111-5.2088623-3.0170288-8.3935547-3.0170288
		c-7.2841797,0-13.2109375,5.9267578-13.2109375,13.2109375c0,2.5335083,0.7294922,4.8944092,1.9711914,6.9072266H2.6139526
		V11.7119141z M31.7033081,37.7341309v-0.1345215h-0.1223145c-1.5800171-1.8666382-2.5378418-4.2757568-2.5378418-6.9072266
		c0-5.90625,4.8046875-10.7109375,10.7109375-10.7109375s10.7109375,4.8046875,10.7109375,10.7109375
		s-4.8046875,10.7109375-10.7109375,10.7109375C36.5445557,41.4033203,33.6680298,39.9775391,31.7033081,37.7341309z
		 M54.4640503,46.3134766c-0.328125,0.328125-0.8808594,0.328125-1.2089844,0l-5.2897949-5.2907104
		c0.4471436-0.3561401,0.8703613-0.7392578,1.2677002-1.149353l5.2310791,5.2310791
		C54.7970581,45.4375,54.7970581,45.9804688,54.4640503,46.3134766z"/>
</g>
</svg>
