<svg width="60" height="60" viewBox="0 0 60 60" fill="none" xmlns="http://www.w3.org/2000/svg">
<path d="M43.3281 44.8541C47.9637 44.8541 51.7215 41.0963 51.7215 36.4608C51.7215 31.8253 47.9637 28.0674 43.3281 28.0674C38.6926 28.0674 34.9348 31.8253 34.9348 36.4608C34.9348 41.0963 38.6926 44.8541 43.3281 44.8541Z" fill="#AFDED7"/>
<path d="M10.5994 21.0598L22.1019 9.73157V21.0598H10.5994Z" fill="#AFDED7"/>
<path d="M51.7215 36.4608C51.7215 32.2515 48.6197 28.7761 44.5791 28.1707V8.25C44.5791 7.55957 44.0195 7 43.3291 7H22.5986C22.5927 7 22.5875 7.0033 22.5816 7.00336C22.5757 7.0033 22.5709 7 22.5649 7C22.1766 7 21.8434 7.1875 21.6142 7.46521L8.37305 20.5054C8.37195 20.5065 8.37164 20.508 8.37054 20.5091C8.255 20.6237 8.16162 20.7601 8.0976 20.9124C8.03394 21.0641 8 21.2281 8 21.396V51.3296C8 52.02 8.55957 52.5796 9.25 52.5796H43.3291C44.0195 52.5796 44.5791 52.02 44.5791 51.3296V44.7509C48.6197 44.1454 51.7215 40.67 51.7215 36.4608ZM21.3149 11.2686V20.146H12.3008L21.3149 11.2686ZM10.5 50.0796V22.646H22.5649C23.2554 22.646 23.8149 22.0864 23.8149 21.396V9.5H42.0791V28.1704C38.0376 28.775 34.9348 32.2509 34.9348 36.4608C34.9348 40.6707 38.0376 44.1465 42.0791 44.7512V50.0796H10.5ZM43.3281 42.3541C40.0786 42.3541 37.4348 39.7104 37.4348 36.4608C37.4348 33.2112 40.0786 30.5674 43.3281 30.5674C46.5778 30.5674 49.2215 33.2112 49.2215 36.4608C49.2215 39.7104 46.5778 42.3541 43.3281 42.3541Z" fill="#0D0D0D"/>
<path d="M35.2051 23.2534H27.7891C27.0986 23.2534 26.5391 22.6938 26.5391 22.0034C26.5391 21.313 27.0986 20.7534 27.7891 20.7534H35.2051C35.8955 20.7534 36.4551 21.313 36.4551 22.0034C36.4551 22.6938 35.8955 23.2534 35.2051 23.2534Z" fill="#0D0D0D"/>
<path d="M27.8066 41.7837H17.5508C16.8604 41.7837 16.3008 41.2241 16.3008 40.5337C16.3008 39.8433 16.8604 39.2837 17.5508 39.2837H27.8066C28.4971 39.2837 29.0566 39.8433 29.0566 40.5337C29.0566 41.2241 28.4971 41.7837 27.8066 41.7837Z" fill="#0D0D0D"/>
<path d="M33.3174 29.6235H17.542C16.8516 29.6235 16.292 29.064 16.292 28.3735C16.292 27.6831 16.8516 27.1235 17.542 27.1235H33.3174C34.0078 27.1235 34.5674 27.6831 34.5674 28.3735C34.5674 29.064 34.0078 29.6235 33.3174 29.6235Z" fill="#0D0D0D"/>
<path d="M30.8906 35.6157H17.542C16.8516 35.6157 16.292 35.0562 16.292 34.3657C16.292 33.6753 16.8516 33.1157 17.542 33.1157H30.8906C31.5811 33.1157 32.1406 33.6753 32.1406 34.3657C32.1406 35.0562 31.5811 35.6157 30.8906 35.6157Z" fill="#0D0D0D"/>
<path d="M42.4961 39.6079C42.1758 39.6079 41.8564 39.4858 41.6123 39.2417L39.4814 37.1108C38.9932 36.6226 38.9932 35.8315 39.4814 35.3433C39.9697 34.855 40.7607 34.855 41.249 35.3433L42.4961 36.5903L45.4072 33.6802C45.8955 33.1919 46.6865 33.1919 47.1748 33.6802C47.6631 34.1685 47.6631 34.9595 47.1748 35.4478L43.3799 39.2417C43.1357 39.4858 42.8164 39.6079 42.4961 39.6079Z" fill="#0D0D0D"/>
</svg>
